<svg width="34" height="34" viewBox="0 0 34 34" fill="none" xmlns="http://www.w3.org/2000/svg">
<path d="M22.8438 16.4688H18.4959C18.4167 16.2466 18.289 16.0448 18.1222 15.8779C17.9553 15.7111 17.7535 15.5834 17.5313 15.5042V9.03134C17.5313 8.89045 17.4753 8.75532 17.3757 8.65569C17.276 8.55606 17.1409 8.50009 17 8.50009C16.8591 8.50009 16.724 8.55606 16.6244 8.65569C16.5247 8.75532 16.4688 8.89045 16.4688 9.03134V15.5042C16.2152 15.5934 15.9883 15.7454 15.8095 15.946C15.6306 16.1466 15.5055 16.3893 15.4459 16.6514C15.3862 16.9135 15.3941 17.1864 15.4686 17.4447C15.5431 17.703 15.6818 17.9381 15.8719 18.1282C16.062 18.3183 16.2971 18.457 16.5554 18.5315C16.8137 18.606 17.0866 18.6139 17.3487 18.5542C17.6108 18.4946 17.8535 18.3695 18.0541 18.1906C18.2547 18.0118 18.4067 17.7849 18.4959 17.5313H22.8438C22.9846 17.5313 23.1198 17.4754 23.2194 17.3757C23.319 17.2761 23.375 17.141 23.375 17.0001C23.375 16.8592 23.319 16.7241 23.2194 16.6244C23.1198 16.5248 22.9846 16.4688 22.8438 16.4688ZM17 17.5313C16.8949 17.5313 16.7922 17.5002 16.7049 17.4418C16.6175 17.3834 16.5494 17.3005 16.5092 17.2034C16.469 17.1063 16.4585 16.9995 16.479 16.8965C16.4995 16.7934 16.5501 16.6987 16.6244 16.6244C16.6986 16.5501 16.7933 16.4995 16.8964 16.4791C16.9994 16.4586 17.1062 16.4691 17.2033 16.5093C17.3004 16.5495 17.3833 16.6176 17.4417 16.7049C17.5001 16.7923 17.5313 16.895 17.5313 17.0001C17.5311 17.1409 17.475 17.276 17.3755 17.3755C17.2759 17.4751 17.1408 17.5312 17 17.5313ZM34 17.0001C34.0004 14.3203 33.3673 11.6784 32.1523 9.28982C30.9372 6.90129 29.1748 4.83383 27.0086 3.25612C24.8425 1.6784 22.3341 0.635127 19.688 0.211409C17.0419 -0.212308 14.3331 -0.00446613 11.7826 0.817979C9.23214 1.64042 6.91222 3.05417 5.01214 4.94389C3.11205 6.8336 1.68562 9.14574 0.849226 11.6917C0.0128302 14.2376 -0.209838 16.9452 0.199387 19.5936C0.608612 22.242 1.63814 24.7561 3.20397 26.9308C3.19562 26.9848 3.19012 27.0392 3.1875 27.0938V28.1563C3.18796 28.5789 3.35602 28.984 3.65481 29.2828C3.9536 29.5816 4.35871 29.7496 4.78125 29.7501H5.3125V30.9039C5.31302 31.4431 5.52745 31.9601 5.90873 32.3414C6.29001 32.7226 6.80698 32.9371 7.34619 32.9376H7.52881C7.91127 32.9366 8.28554 32.8268 8.60792 32.621C8.73742 33.0206 8.98983 33.3691 9.32913 33.6168C9.66844 33.8644 10.0773 33.9986 10.4974 34.0001H10.7526C11.2822 33.9994 11.7898 33.7888 12.1642 33.4143C12.5387 33.0399 12.7493 32.5323 12.75 32.0027V29.7501H21.25V32.0027C21.2507 32.5322 21.4613 33.0399 21.8358 33.4143C22.2102 33.7888 22.7178 33.9994 23.2474 34.0001H23.5026C23.9227 33.9986 24.3316 33.8644 24.6709 33.6168C25.0102 33.3691 25.2626 33.0206 25.3921 32.621C25.7145 32.8268 26.0887 32.9366 26.4712 32.9376H26.6538C27.193 32.9371 27.71 32.7226 28.0913 32.3414C28.4726 31.9601 28.687 31.4431 28.6875 30.9039V29.7501H29.2188C29.6413 29.7496 30.0464 29.5816 30.3452 29.2828C30.644 28.984 30.812 28.5789 30.8125 28.1563V27.0938C30.8099 27.0392 30.8044 26.9848 30.796 26.9308C32.886 24.042 34.0076 20.5656 34 17.0001ZM5.3125 28.6876H4.78125C4.64041 28.6874 4.50539 28.6314 4.4058 28.5318C4.30621 28.4322 4.25018 28.2972 4.25 28.1563V27.0938C4.25018 26.953 4.30621 26.818 4.4058 26.7184C4.50539 26.6188 4.64041 26.5628 4.78125 26.5626H5.3125V28.6876ZM8.5 30.9039C8.49967 31.1614 8.39724 31.4082 8.21518 31.5903C8.03312 31.7723 7.78629 31.8748 7.52881 31.8751H7.34619C7.08872 31.8748 6.84188 31.7723 6.65982 31.5903C6.47776 31.4082 6.37533 31.1614 6.375 30.9039V25.4088C6.37533 25.1513 6.47776 24.9045 6.65982 24.7224C6.84188 24.5404 7.08872 24.4379 7.34619 24.4376H7.52881C7.78629 24.4379 8.03312 24.5404 8.21518 24.7224C8.39724 24.9045 8.49967 25.1513 8.5 25.4088V30.9039ZM11.6875 32.0027C11.6873 32.2506 11.5887 32.4883 11.4134 32.6635C11.2382 32.8388 11.0005 32.9374 10.7526 32.9376H10.4974C10.2495 32.9374 10.0118 32.8388 9.83656 32.6635C9.66128 32.4883 9.56272 32.2506 9.5625 32.0027V23.2475C9.56272 22.9996 9.66128 22.7619 9.83656 22.5866C10.0118 22.4114 10.2495 22.3128 10.4974 22.3126H10.7526C11.0005 22.3128 11.2382 22.4114 11.4134 22.5866C11.5887 22.7619 11.6873 22.9996 11.6875 23.2475V32.0027ZM21.25 28.6876H12.75V26.5626H21.25V28.6876ZM24.4375 25.4088V32.0027C24.4373 32.2506 24.3387 32.4883 24.1635 32.6635C23.9882 32.8388 23.7505 32.9374 23.5026 32.9376H23.2474C22.9995 32.9374 22.7618 32.8388 22.5866 32.6635C22.4113 32.4883 22.3127 32.2506 22.3125 32.0027V23.2475C22.3127 22.9996 22.4113 22.7619 22.5866 22.5866C22.7618 22.4114 22.9995 22.3128 23.2474 22.3126H23.5026C23.7505 22.3128 23.9882 22.4114 24.1634 22.5866C24.3387 22.7619 24.4373 22.9996 24.4375 23.2475V25.4088ZM27.625 30.9039C27.6247 31.1614 27.5222 31.4082 27.3402 31.5903C27.1581 31.7723 26.9113 31.8748 26.6538 31.8751H26.4712C26.2137 31.8748 25.9669 31.7723 25.7848 31.5903C25.6028 31.4082 25.5003 31.1614 25.5 30.9039V25.4088C25.5003 25.1513 25.6028 24.9045 25.7848 24.7224C25.9669 24.5404 26.2137 24.4379 26.4712 24.4376H26.6538C26.9113 24.4379 27.1581 24.5404 27.3402 24.7224C27.5222 24.9045 27.6247 25.1513 27.625 25.4088V30.9039ZM27.8149 23.7432C27.475 23.5039 27.0695 23.3753 26.6538 23.3751H26.4712C26.1308 23.3774 25.7966 23.4662 25.5 23.6331V23.2475C25.4993 22.7179 25.2887 22.2103 24.9142 21.8358C24.5398 21.4614 24.0322 21.2508 23.5026 21.2501H23.2474C22.7179 21.2508 22.2102 21.4614 21.8358 21.8358C21.4613 22.2103 21.2507 22.7179 21.25 23.2475V25.5001H12.75V23.2475C12.7493 22.7179 12.5387 22.2103 12.1642 21.8358C11.7898 21.4614 11.2822 21.2508 10.7526 21.2501H10.4974C9.96784 21.2508 9.46019 21.4614 9.08576 21.8358C8.71132 22.2103 8.50067 22.7179 8.5 23.2475V23.6331C8.20337 23.4662 7.86917 23.3774 7.52881 23.3751H7.34619C6.9305 23.3753 6.52502 23.5039 6.18512 23.7432C5.01842 21.8739 4.35842 19.7331 4.27004 17.5313H5.84375C5.98465 17.5313 6.11977 17.4754 6.2194 17.3757C6.31903 17.2761 6.375 17.141 6.375 17.0001C6.375 16.8592 6.31903 16.7241 6.2194 16.6244C6.11977 16.5248 5.98465 16.4688 5.84375 16.4688H4.27587C4.39214 13.4585 5.58029 10.5888 7.62602 8.37733L8.73554 9.48685C8.83549 9.58481 8.97007 9.63936 9.11002 9.63865C9.24997 9.63794 9.38399 9.58204 9.48295 9.48307C9.58191 9.38411 9.63782 9.25009 9.63853 9.11014C9.63923 8.97019 9.58468 8.83562 9.48672 8.73566L8.37718 7.62605C10.5886 5.58015 13.4584 4.39199 16.4688 4.27597V5.84384C16.4688 5.98474 16.5247 6.11987 16.6244 6.21949C16.724 6.31912 16.8591 6.37509 17 6.37509C17.1409 6.37509 17.276 6.31912 17.3757 6.21949C17.4753 6.11987 17.5313 5.98474 17.5313 5.84384V4.27597C20.5416 4.39198 23.4114 5.58013 25.6228 7.62603L24.5132 8.73563C24.4631 8.78477 24.4232 8.84337 24.3958 8.90802C24.3685 8.97268 24.3542 9.04213 24.3539 9.11233C24.3535 9.18254 24.3671 9.25212 24.3938 9.31706C24.4205 9.38199 24.4598 9.44098 24.5094 9.49063C24.5591 9.54028 24.6181 9.57959 24.683 9.60629C24.7479 9.63299 24.8175 9.64656 24.8877 9.64621C24.9579 9.64585 25.0274 9.63158 25.092 9.60422C25.1567 9.57687 25.2153 9.53696 25.2644 9.48682L26.374 8.3773C28.4197 10.5888 29.6079 13.4585 29.7241 16.4688H28.1563C28.0154 16.4688 27.8802 16.5248 27.7806 16.6244C27.681 16.7241 27.625 16.8592 27.625 17.0001C27.625 17.141 27.681 17.2761 27.7806 17.3757C27.8802 17.4754 28.0154 17.5313 28.1563 17.5313H29.73C29.6416 19.7331 28.9816 21.8739 27.8149 23.7432ZM29.75 28.1563C29.7498 28.2972 29.6938 28.4322 29.5942 28.5318C29.4946 28.6314 29.3596 28.6874 29.2188 28.6876H28.6875V26.5626H29.2188C29.3596 26.5628 29.4946 26.6188 29.5942 26.7184C29.6938 26.818 29.7498 26.953 29.75 27.0938V28.1563ZM30.2322 25.8741C29.9489 25.6341 29.59 25.5017 29.2188 25.5001H28.6875V25.4088C28.6875 25.1329 28.631 24.86 28.5215 24.6068C29.898 22.5252 30.6848 20.1094 30.7982 17.6163C30.9117 15.1233 30.3476 12.6461 29.1658 10.4479C27.9841 8.24982 26.2289 6.41294 24.0868 5.1325C21.9447 3.85206 19.4956 3.17591 17 3.17591C14.5044 3.17591 12.0553 3.85206 9.91322 5.1325C7.7711 6.41294 6.0159 8.24982 4.83417 10.4479C3.65244 12.6461 3.08833 15.1233 3.20178 17.6163C3.31524 20.1094 4.10202 22.5252 5.47852 24.6068C5.36902 24.86 5.31252 25.1329 5.3125 25.4088V25.5001H4.78125C4.40997 25.5017 4.05113 25.6341 3.76784 25.8741C2.38111 23.8065 1.49813 21.4427 1.18967 18.9723C0.881207 16.5019 1.15586 13.9936 1.9916 11.6485C2.82735 9.3034 4.20093 7.18673 6.00223 5.4682C7.80352 3.74967 9.98242 2.47709 12.3642 1.7525C14.746 1.02791 17.2645 0.87146 19.7176 1.2957C22.1708 1.71993 24.4904 2.71305 26.4906 4.19543C28.4907 5.6778 30.1157 7.6082 31.2353 9.83184C32.3549 12.0555 32.9378 14.5105 32.9375 17.0001C32.9423 20.1619 32.0001 23.2527 30.2322 25.8741Z" fill="#F7931E"/>
</svg>
