<svg width="24" height="16" viewBox="0 0 24 16" fill="none" xmlns="http://www.w3.org/2000/svg">
<path fill-rule="evenodd" clip-rule="evenodd" d="M0.625013 7.99995C0.625013 8.21544 0.710615 8.4221 0.862988 8.57447C1.01536 8.72685 1.22202 8.81245 1.43751 8.81245L20.6011 8.81245L15.4873 13.9247C15.4117 14.0002 15.3518 14.0899 15.3109 14.1886C15.27 14.2873 15.249 14.3931 15.249 14.5C15.249 14.6068 15.27 14.7126 15.3109 14.8113C15.3518 14.91 15.4117 14.9997 15.4873 15.0752C15.5628 15.1507 15.6525 15.2107 15.7512 15.2516C15.8499 15.2924 15.9557 15.3135 16.0625 15.3135C16.1693 15.3135 16.2751 15.2924 16.3738 15.2516C16.4725 15.2107 16.5622 15.1507 16.6378 15.0752L23.1378 8.5752C23.2134 8.49973 23.2735 8.41006 23.3144 8.31135C23.3554 8.21264 23.3765 8.10682 23.3765 7.99995C23.3765 7.89308 23.3554 7.78726 23.3144 7.68855C23.2735 7.58983 23.2134 7.50017 23.1378 7.4247L16.6378 0.924699C16.5622 0.849155 16.4725 0.789231 16.3738 0.748348C16.2751 0.707464 16.1693 0.686422 16.0625 0.686422C15.9557 0.686422 15.8499 0.707464 15.7512 0.748348C15.6525 0.789231 15.5628 0.849155 15.4873 0.924699C15.4117 1.00024 15.3518 1.08992 15.3109 1.18863C15.27 1.28733 15.249 1.39312 15.249 1.49995C15.249 1.60678 15.27 1.71257 15.3109 1.81127C15.3518 1.90997 15.4117 1.99966 15.4873 2.0752L20.6011 7.18745L1.43751 7.18745C1.22202 7.18745 1.01536 7.27305 0.862988 7.42542C0.710615 7.5778 0.625013 7.78446 0.625013 7.99995Z" fill="white"/>
</svg>
