<svg width="24" height="16" viewBox="0 0 24 16" fill="none" xmlns="http://www.w3.org/2000/svg">
<path fill-rule="evenodd" clip-rule="evenodd" d="M23.375 8.00005C23.375 7.78456 23.2894 7.5779 23.137 7.42553C22.9846 7.27315 22.778 7.18755 22.5625 7.18755H3.39886L8.51274 2.0753C8.58828 1.99976 8.6482 1.91007 8.68909 1.81137C8.72997 1.71267 8.75101 1.60688 8.75101 1.50005C8.75101 1.39322 8.72997 1.28743 8.68909 1.18873C8.6482 1.09003 8.58828 1.00034 8.51274 0.9248C8.43719 0.849257 8.34751 0.789333 8.24881 0.74845C8.15011 0.707566 8.04432 0.686523 7.93749 0.686523C7.83065 0.686523 7.72487 0.707566 7.62616 0.74845C7.52746 0.789333 7.43778 0.849257 7.36224 0.9248L0.862238 7.4248C0.786572 7.50027 0.72654 7.58994 0.68558 7.68865C0.644619 7.78736 0.623535 7.89318 0.623535 8.00005C0.623535 8.10692 0.644619 8.21274 0.68558 8.31145C0.72654 8.41017 0.786572 8.49983 0.862238 8.5753L7.36224 15.0753C7.43778 15.1508 7.52746 15.2108 7.62616 15.2517C7.72487 15.2925 7.83065 15.3136 7.93749 15.3136C8.04432 15.3136 8.15011 15.2925 8.24881 15.2517C8.34751 15.2108 8.43719 15.1508 8.51274 15.0753C8.58828 14.9998 8.6482 14.9101 8.68909 14.8114C8.72997 14.7127 8.75101 14.6069 8.75101 14.5001C8.75101 14.3932 8.72997 14.2874 8.68909 14.1887C8.6482 14.09 8.58828 14.0003 8.51274 13.9248L3.39886 8.81255H22.5625C22.778 8.81255 22.9846 8.72695 23.137 8.57458C23.2894 8.4222 23.375 8.21554 23.375 8.00005Z" fill="white"/>
</svg>
