<svg width="40" height="41" viewBox="0 0 40 41" fill="none" xmlns="http://www.w3.org/2000/svg">
<path fill-rule="evenodd" clip-rule="evenodd" d="M2.49997 20.5C2.49997 20.8315 2.63166 21.1495 2.86608 21.3839C3.1005 21.6183 3.41845 21.75 3.74997 21.75L33.2325 21.75L25.365 29.615C25.2487 29.7312 25.1566 29.8692 25.0937 30.021C25.0308 30.1729 24.9984 30.3356 24.9984 30.5C24.9984 30.6644 25.0308 30.8271 25.0937 30.979C25.1566 31.1308 25.2487 31.2688 25.365 31.385C25.4812 31.5012 25.6192 31.5934 25.771 31.6563C25.9229 31.7192 26.0856 31.7516 26.25 31.7516C26.4143 31.7516 26.5771 31.7192 26.7289 31.6563C26.8808 31.5934 27.0187 31.5012 27.135 31.385L37.135 21.385C37.2514 21.2689 37.3437 21.131 37.4067 20.9791C37.4698 20.8272 37.5022 20.6644 37.5022 20.5C37.5022 20.3356 37.4698 20.1728 37.4067 20.0209C37.3437 19.8691 37.2514 19.7311 37.135 19.615L27.135 9.615C27.0187 9.49879 26.8808 9.40659 26.7289 9.3437C26.5771 9.2808 26.4143 9.24843 26.25 9.24843C26.0856 9.24843 25.9229 9.2808 25.771 9.3437C25.6192 9.40659 25.4812 9.49879 25.365 9.615C25.2487 9.73122 25.1566 9.8692 25.0937 10.021C25.0308 10.1729 24.9984 10.3356 24.9984 10.5C24.9984 10.6644 25.0308 10.8271 25.0937 10.979C25.1566 11.1308 25.2487 11.2688 25.365 11.385L33.2325 19.25L3.74997 19.25C3.41845 19.25 3.1005 19.3817 2.86608 19.6161C2.63166 19.8505 2.49997 20.1685 2.49997 20.5Z" fill="#F7931E"/>
</svg>
