<svg width="40" height="41" viewBox="0 0 40 41" fill="none" xmlns="http://www.w3.org/2000/svg">
<path fill-rule="evenodd" clip-rule="evenodd" d="M37.5 22.0384C37.5 21.7069 37.3683 21.389 37.1339 21.1546C36.8995 20.9201 36.5816 20.7884 36.25 20.7884H6.76754L14.635 12.9234C14.7513 12.8072 14.8434 12.6693 14.9063 12.5174C14.9692 12.3656 15.0016 12.2028 15.0016 12.0384C15.0016 11.8741 14.9692 11.7113 14.9063 11.5595C14.8434 11.4076 14.7513 11.2697 14.635 11.1534C14.5188 11.0372 14.3808 10.945 14.229 10.8821C14.0771 10.8192 13.9144 10.7869 13.75 10.7869C13.5857 10.7869 13.4229 10.8192 13.2711 10.8821C13.1192 10.945 12.9813 11.0372 12.865 11.1534L2.86504 21.1534C2.74863 21.2696 2.65627 21.4075 2.59326 21.5594C2.53024 21.7112 2.4978 21.874 2.4978 22.0384C2.4978 22.2029 2.53024 22.3657 2.59326 22.5175C2.65627 22.6694 2.74863 22.8073 2.86504 22.9234L12.865 32.9234C12.9813 33.0397 13.1192 33.1319 13.2711 33.1948C13.4229 33.2577 13.5857 33.29 13.75 33.29C13.9144 33.29 14.0771 33.2577 14.229 33.1948C14.3808 33.1319 14.5188 33.0397 14.635 32.9234C14.7513 32.8072 14.8434 32.6693 14.9063 32.5174C14.9692 32.3656 15.0016 32.2028 15.0016 32.0384C15.0016 31.8741 14.9692 31.7113 14.9063 31.5595C14.8434 31.4076 14.7513 31.2697 14.635 31.1534L6.76754 23.2884H36.25C36.5816 23.2884 36.8995 23.1567 37.1339 22.9223C37.3683 22.6879 37.5 22.37 37.5 22.0384Z" fill="white"/>
</svg>
