<svg width="22" height="22" viewBox="0 0 22 22" fill="none" xmlns="http://www.w3.org/2000/svg">
<path d="M14.6667 10.9999V10.999C14.6666 10.1507 14.3725 9.32867 13.8343 8.67295C13.2962 8.01723 12.5473 7.56839 11.7154 7.40289C10.8834 7.23739 10.0198 7.36548 9.27166 7.76533C8.52353 8.16517 7.93719 8.81205 7.61253 9.59573C7.28786 10.3794 7.24496 11.2514 7.49114 12.0632C7.73731 12.875 8.25733 13.5763 8.96259 14.0476C9.66786 14.519 10.5147 14.7312 11.3589 14.6482C12.2031 14.5651 12.9924 14.1919 13.5923 13.5922C13.9327 13.2632 14.2033 12.8689 14.3879 12.4329C14.5725 11.997 14.6673 11.5283 14.6667 11.0549L14.6658 10.9971V10.9999H14.6667ZM16.6467 10.9999C16.6423 12.3001 16.1874 13.5587 15.3596 14.5614C14.5318 15.564 13.382 16.2489 12.1061 16.4993C10.8302 16.7497 9.50694 16.5503 8.36151 15.935C7.21607 15.3196 6.31926 14.3264 5.82368 13.1242C5.32811 11.9221 5.2644 10.5854 5.6434 9.34163C6.0224 8.09783 6.82069 7.02379 7.90241 6.3023C8.98413 5.5808 10.2824 5.25643 11.5764 5.38439C12.8703 5.51235 14.08 6.08474 14.9994 7.00413C15.5216 7.51079 15.9365 8.11723 16.2197 8.78743C16.5028 9.45763 16.6483 10.1779 16.6476 10.9055L16.6467 11.0054V11.0008V10.9999ZM18.1931 5.12771V5.12955C18.1932 5.43494 18.0874 5.73092 17.8937 5.96705C17.7001 6.20319 17.4305 6.36486 17.131 6.42453C16.8315 6.4842 16.5206 6.43817 16.2512 6.29429C15.9818 6.15041 15.7707 5.91757 15.6537 5.63546C15.5368 5.35334 15.5212 5.0394 15.6098 4.74713C15.6984 4.45487 15.8856 4.20235 16.1395 4.03262C16.3933 3.86289 16.6982 3.78644 17.0022 3.8163C17.3061 3.84616 17.5903 3.98048 17.8063 4.19638C18.0409 4.42646 18.1867 4.7473 18.1867 5.10205V5.12863V5.12771H18.1931ZM11.0064 1.97438L9.911 1.96705C9.24734 1.96216 8.74348 1.96216 8.39942 1.96705C8.05537 1.97194 7.59459 1.9863 7.01709 2.01013C6.48084 2.02846 5.97209 2.08163 5.47434 2.16596L5.54125 2.1568C5.15167 2.22096 4.80609 2.31263 4.47517 2.43455L4.51459 2.42171C4.04709 2.60964 3.62196 2.88928 3.26427 3.24414C2.90658 3.599 2.62356 4.02189 2.43192 4.48788L2.42275 4.51263C2.3051 4.83467 2.21794 5.16704 2.16242 5.50538L2.15784 5.5393C2.07631 6.02096 2.02761 6.50761 2.01209 6.99588L2.01117 7.01513C1.98734 7.59324 1.97298 8.05402 1.96809 8.39746C1.9632 8.74091 1.9632 9.24477 1.96809 9.90905C1.97298 10.5733 1.97542 10.9385 1.97542 11.0045C1.97542 11.0705 1.97298 11.4356 1.96809 12.0999C1.9632 12.7642 1.9632 13.268 1.96809 13.6115C1.97298 13.9549 1.98734 14.4157 2.01117 14.9938C2.0295 15.53 2.08267 16.0388 2.167 16.5365L2.15784 16.4696C2.222 16.8592 2.31367 17.2048 2.43559 17.5357L2.42275 17.4963C2.61068 17.9638 2.89032 18.3889 3.24518 18.7466C3.60004 19.1043 4.02294 19.3873 4.48892 19.579L4.51367 19.5881C4.80517 19.6972 5.15075 19.7889 5.50642 19.8485L5.54034 19.853C5.97025 19.9282 6.479 19.9814 6.996 19.9988L7.01525 19.9997C7.59337 20.0235 8.05414 20.0379 8.39759 20.0428C8.74103 20.0477 9.24489 20.0477 9.90917 20.0428L10.9982 20.0208L12.0936 20.0281C12.7573 20.033 13.2611 20.033 13.6052 20.0281C13.9492 20.0232 14.41 20.0089 14.9875 19.985C15.5238 19.9667 16.0325 19.9135 16.5303 19.8292L16.4633 19.8384C16.8529 19.7742 17.1985 19.6825 17.5294 19.5606L17.49 19.5735C17.9575 19.3855 18.3826 19.1059 18.7403 18.751C19.098 18.3962 19.381 17.9733 19.5727 17.5073L19.5818 17.4825C19.6909 17.191 19.7826 16.8455 19.8422 16.4898L19.8468 16.4559C19.9219 16.026 19.9751 15.5172 19.9925 15.0002L19.9934 14.981C20.0173 14.4029 20.0316 13.9421 20.0365 13.5986C20.0414 13.2552 20.0414 12.7513 20.0365 12.087C20.0316 11.4228 20.0292 11.0576 20.0292 10.9916C20.0292 10.9256 20.0316 10.5605 20.0365 9.89621C20.0414 9.23193 20.0414 8.72807 20.0365 8.38463C20.0316 8.04119 20.0173 7.58041 19.9934 7.0023C19.9751 6.46605 19.9219 5.9573 19.8376 5.45955L19.8468 5.52646C19.7886 5.16301 19.6956 4.806 19.569 4.46038L19.5818 4.4998C19.3939 4.0323 19.1143 3.60717 18.7594 3.24948C18.4045 2.89179 17.9817 2.60877 17.5157 2.41713L17.4909 2.40796C17.1689 2.2903 16.8365 2.20314 16.4982 2.14763L16.4643 2.14305C15.9829 2.06156 15.4965 2.01286 15.0086 1.9973L14.9893 1.99638C14.4112 1.97255 13.9504 1.95819 13.607 1.9533C13.2636 1.94841 12.7597 1.94841 12.0954 1.9533L11.0064 1.97438ZM22 10.9999C22 13.1864 21.9756 14.6999 21.9267 15.5401C21.97 16.3917 21.8339 17.2429 21.5273 18.0385C21.2206 18.8341 20.7502 19.5564 20.1465 20.1586C19.5429 20.7608 18.8194 21.2294 18.0231 21.5341C17.2267 21.8389 16.3752 21.9729 15.5238 21.9275L15.5384 21.9284C14.6981 21.9773 13.1847 22.0017 10.9982 22.0017C8.81161 22.0017 7.2982 21.9773 6.45792 21.9284C5.60635 21.9717 4.75518 21.8356 3.95957 21.529C3.16395 21.2223 2.44165 20.7519 1.83946 20.1483C1.23726 19.5446 0.768622 18.8211 0.463902 18.0248C0.159183 17.2284 0.0251835 16.3769 0.0705879 15.5255L0.0696712 15.5401C0.0207823 14.6999 -0.00366211 13.1864 -0.00366211 10.9999C-0.00366211 8.81332 0.0207823 7.29991 0.0696712 6.45963C0.0263417 5.60806 0.162416 4.75689 0.469075 3.96128C0.775734 3.16566 1.24614 2.44336 1.8498 1.84116C2.45346 1.23897 3.17691 0.770331 3.97327 0.465611C4.76963 0.160892 5.62113 0.0268924 6.47259 0.0722969L6.45792 0.0713802C7.2982 0.0224913 8.81161 -0.00195312 10.9982 -0.00195312C13.1847 -0.00195312 14.6981 0.0224913 15.5384 0.0713802C16.39 0.0280507 17.2412 0.164125 18.0368 0.470784C18.8324 0.777443 19.5547 1.24784 20.1569 1.85151C20.7591 2.45517 21.2277 3.17862 21.5324 3.97498C21.8372 4.77134 21.9712 5.62284 21.9258 6.4743L21.9267 6.45963C21.9756 7.2993 22 8.81271 22 10.9999Z" fill="white" fill-opacity="0.7"/>
</svg>
