<svg width="24" height="24" viewBox="0 0 24 24" fill="none" xmlns="http://www.w3.org/2000/svg">
<path d="M17.8435 2.06087C16.3566 0.730435 14.2696 0 12.0001 0C9.73049 0 7.64353 0.730435 6.15657 2.06087C4.33049 3.67826 3.39136 6.10435 3.39136 9.13043C3.39136 15.6783 10.9305 23.3739 11.2696 23.687C11.4783 23.8957 11.7392 24 12.0001 24C12.2609 24 12.5479 23.8957 12.7305 23.687C13.0696 23.3739 20.6087 15.6783 20.6087 9.13043C20.6087 6.10435 19.6696 3.67826 17.8435 2.06087ZM12.0001 21.4174C11.2957 20.6348 10.174 19.3304 9.07831 17.7652C6.73049 14.4261 5.47831 11.4522 5.47831 9.13043C5.47831 2.6087 10.4609 2.08696 12.0001 2.08696C18.0522 2.08696 18.5218 7.48696 18.5218 9.13043C18.5218 13.7217 13.8522 19.3826 12.0001 21.4174ZM12.0001 4.51304C9.7044 4.51304 7.85223 6.41739 7.85223 8.73913C7.85223 11.0609 9.7044 12.9391 12.0001 12.9391C14.2957 12.9391 16.1479 11.0348 16.1479 8.71304C16.1479 6.3913 14.2957 4.51304 12.0001 4.51304ZM12.0001 11.113C10.7218 11.113 9.67831 10.0435 9.67831 8.71304C9.67831 7.38261 10.7218 6.31304 12.0001 6.31304C13.2783 6.31304 14.3218 7.38261 14.3218 8.71304C14.3218 10.0435 13.2783 11.113 12.0001 11.113Z" fill="#F7931E"/>
</svg>
