<svg width="30" height="18" viewBox="0 0 30 18" fill="none" xmlns="http://www.w3.org/2000/svg">
<path d="M29.3199 1.22988C29.0061 2.23263 28.5471 3.18398 27.9574 4.05363L27.9812 4.01613C27.4212 4.94946 26.7524 6.0278 25.9749 7.25113C25.3082 8.21696 24.9553 8.71696 24.9162 8.75113C24.738 8.97424 24.6227 9.24096 24.5824 9.52363L24.5812 9.53238C24.613 9.78707 24.7312 10.0231 24.9162 10.2011L25.4162 10.7586C28.0912 13.5078 29.5957 15.4028 29.9299 16.4436C29.9933 16.6146 30.0137 16.7985 29.9892 16.9792C29.9648 17.1599 29.8964 17.3319 29.7899 17.4799L29.7924 17.4761C29.6666 17.6059 29.5132 17.7058 29.3435 17.7683C29.1739 17.8309 28.9924 17.8545 28.8124 17.8374H28.8174H25.5224C25.1012 17.8374 24.7137 17.6899 24.4099 17.4449L24.4137 17.4474C23.98 17.0918 23.5819 16.6949 23.2249 16.2624L23.2137 16.2474C22.6378 15.5965 22.127 15.0486 21.6812 14.6036C20.1962 13.192 19.1003 12.4861 18.3937 12.4861C18.1656 12.4657 17.9375 12.5254 17.7487 12.6549L17.7524 12.6524C17.6713 12.7541 17.6117 12.8713 17.5773 12.9968C17.5429 13.1223 17.5345 13.2535 17.5524 13.3824V13.3774C17.5038 13.9606 17.488 14.5461 17.5049 15.1311V15.1099V16.5586C17.5404 16.7317 17.5282 16.9111 17.4697 17.0778C17.4111 17.2444 17.3084 17.3921 17.1724 17.5049L17.1712 17.5061C16.5382 17.7921 15.8413 17.9072 15.1499 17.8399L15.1662 17.8411C13.2739 17.8087 11.4263 17.2607 9.82241 16.2561L9.86616 16.2811C8.01665 15.1661 6.43137 13.6627 5.21991 11.8749L5.18616 11.8224C4.01021 10.2542 2.97653 8.58427 2.09741 6.83238L2.00991 6.63988C1.42411 5.50543 0.909371 4.33568 0.468662 3.13738L0.393662 2.90613C0.189331 2.28405 0.0592619 1.64 0.00616211 0.987383L0.00366211 0.956133C0.00366211 0.324466 0.375329 0.00863307 1.11866 0.00863307H4.40616C4.73852 -0.0173979 5.06845 0.083054 5.32991 0.289883L5.32741 0.287383C5.57741 0.561133 5.76241 0.897382 5.85366 1.27238L5.85741 1.28738C6.40053 2.84278 7.06378 4.35358 7.84116 5.80613L7.75741 5.63488C8.31927 6.77616 8.99924 7.8554 9.78616 8.85488L9.75741 8.81613C10.4241 9.63446 10.9441 10.0436 11.3174 10.0436L11.3574 10.0449C11.4453 10.045 11.5317 10.022 11.6078 9.97808C11.684 9.93419 11.7472 9.871 11.7912 9.79488L11.7924 9.79238C11.9121 9.47908 11.9595 9.14281 11.9312 8.80863V8.81613V3.96738C11.9078 3.41763 11.7716 2.87855 11.5312 2.38363L11.5412 2.40738C11.3953 2.09284 11.206 1.80039 10.9787 1.53863L10.9824 1.54363C10.7728 1.33437 10.6364 1.06296 10.5937 0.769883L10.5924 0.762383C10.5924 0.549883 10.6899 0.358633 10.8424 0.233633L10.8437 0.232383C11.0006 0.0886562 11.2059 0.00922891 11.4187 0.00988297H16.6112C16.7415 -0.00532883 16.8736 0.0120629 16.9955 0.0604974C17.1175 0.108932 17.2255 0.186894 17.3099 0.287383L17.3112 0.288633C17.469 0.580352 17.5381 0.911884 17.5099 1.24238V1.23613V7.70238C17.49 7.95742 17.5494 8.21238 17.6799 8.43238L17.6774 8.42738C17.7232 8.4958 17.7851 8.55188 17.8577 8.59069C17.9303 8.6295 18.0113 8.64982 18.0937 8.64988H18.0949C18.3057 8.63618 18.509 8.56626 18.6837 8.44738L18.6799 8.44988C19.0199 8.21613 19.3124 7.94988 19.5662 7.64863L19.5712 7.64238C20.3434 6.7686 21.0358 5.82733 21.6399 4.82988L21.6887 4.74238C22.1187 4.02988 22.5837 3.15238 23.0049 2.25113L23.0824 2.06738L23.6399 0.952382C23.7381 0.664089 23.9274 0.415583 24.1793 0.244419C24.4312 0.0732548 24.732 -0.0112648 25.0362 0.00363283H25.0324H28.3212C29.2095 0.00363283 29.5428 0.412383 29.3212 1.22988H29.3199Z" fill="#F7931E"/>
</svg>
