<svg width="56" height="30" viewBox="0 0 56 30" fill="none" xmlns="http://www.w3.org/2000/svg">
<path d="M3.2 25.4H8V26.2C8 27.9644 9.43555 29.4 11.2 29.4H16C17.7645 29.4 19.2 27.9644 19.2 26.2V19.8H36.8V26.2C36.8 27.9644 38.2355 29.4 40 29.4H44.8C46.5645 29.4 48 27.9644 48 26.2V25.4H52.8C54.5645 25.4 56 23.9644 56 22.2V7.79998C56 6.03552 54.5645 4.59998 52.8 4.59998H48V3.79998C48 2.03552 46.5645 0.599976 44.8 0.599976H40C38.2355 0.599976 36.8 2.03552 36.8 3.79998V10.2H19.2V3.79998C19.2 2.03552 17.7645 0.599976 16 0.599976H11.2C9.43555 0.599976 8 2.03552 8 3.79998V4.59998H3.2C1.43555 4.59998 0 6.03552 0 7.79998V22.2C0 23.9644 1.43555 25.4 3.2 25.4ZM52.8 7.79998V22.2H48V7.79998H52.8ZM40 3.79998H44.8V7.79998V22.2V26.2H40V3.79998ZM36.6 13.4V16.6H19.2V13.4H36.6ZM11.2 3.79998H16L16.0005 10.2H16V19.8H16.0014L16.002 26.2H11.2V22.2V7.79998V3.79998ZM3.2 7.79998H8V22.2H3.2V7.79998Z" fill="#F7931E"/>
</svg>
