<svg width="62" height="55" viewBox="0 0 62 55" fill="none" xmlns="http://www.w3.org/2000/svg">
<path fill-rule="evenodd" clip-rule="evenodd" d="M61.6666 48.3333C61.6666 52.016 58.6826 55 54.9999 55H6.99992C3.31725 55 0.333252 52.016 0.333252 48.3333V9.66663C0.333252 6.72129 2.72125 4.33329 5.66658 4.33329H32.5612L43.3599 0.421295C44.0439 0.171962 44.8012 0.525295 45.0506 1.20663L46.1879 4.33329H50.9999C53.9452 4.33329 56.3332 6.72129 56.3332 9.66663V12.3333C59.2786 12.3333 61.6666 14.7213 61.6666 17.6666V48.3333ZM5.66658 6.99996C4.19459 6.99996 2.99992 8.19463 2.99992 9.66663C2.99992 11.1386 4.19459 12.3333 5.66658 12.3333H10.2599H10.5119C10.5293 12.3266 10.5399 12.312 10.5573 12.3053L25.1999 6.99996H5.66658ZM44.4372 7.24129L43.0212 3.34263H43.0199L40.2853 4.33329H40.2892L32.9372 6.99996H32.9239L18.2053 12.3333H46.2879L44.4372 7.24129ZM53.6666 9.66663C53.6666 8.19463 52.4719 6.99996 50.9999 6.99996H47.1559L49.0946 12.3333H53.6666V9.66663ZM56.3332 15H5.66658C4.69059 15 3.78659 14.7186 2.99992 14.26V48.3333C2.99992 50.5426 4.79192 52.3333 6.99992 52.3333H54.9999C57.2092 52.3333 58.9999 50.5426 58.9999 48.3333V39H53.6666C50.7212 39 48.3332 36.612 48.3332 33.6666C48.3332 30.7213 50.7212 28.3333 53.6666 28.3333H58.9999V17.6666C58.9999 16.1946 57.8052 15 56.3332 15ZM58.9999 36.3333V31H53.6666C52.1946 31 50.9999 32.1946 50.9999 33.6666C50.9999 35.1386 52.1946 36.3333 53.6666 36.3333H58.9999ZM53.6666 32.3333H56.3332V35H53.6666V32.3333Z" fill="#F7931E"/>
</svg>
