<svg width="58" height="52" viewBox="0 0 58 52" fill="none" xmlns="http://www.w3.org/2000/svg">
<path d="M53.6399 43.1842C55.7711 41.6098 57.1599 39.0882 57.1599 36.2402C57.1599 32.4194 54.7023 29.1042 51.0479 27.9842L46.3952 26.557L48.5008 16.5346C52.9936 14.4546 56.36 10.365 57.4352 5.41141C57.6848 4.25301 57.4096 3.06901 56.6672 2.15381C55.9376 1.24501 54.8367 0.720215 53.6591 0.720215H53.4927C51.7647 0.720215 50.3055 1.93621 49.9535 3.67701C49.2879 6.93461 46.7536 9.46901 43.5024 10.1474C42.0688 10.4418 40.9744 11.581 40.6416 12.989C40.5968 13.0722 40.5648 13.1618 40.5456 13.2578L38.2672 24.0738L18.632 18.0642L16.808 13.5202H17.8512C20.1168 13.5202 21.96 11.677 21.96 9.41141C21.96 7.48501 20.5903 5.79542 18.7087 5.38582L7.87355 3.06901C6.30555 2.72981 4.69275 3.11381 3.44475 4.12501C2.19675 5.12981 1.47995 6.63381 1.47995 8.23381C1.47995 11.1522 3.84795 13.5202 6.76635 13.5202H7.65595L9.46075 18.0386C8.16795 18.493 6.93275 19.1458 5.79355 19.9906C2.23515 22.6146 0.199951 26.6594 0.199951 31.0818C0.199951 35.8242 2.60635 40.0098 6.25435 42.4994C2.79835 43.2418 0.199951 46.3202 0.199951 50.0002C0.199951 50.7042 0.775951 51.2802 1.47995 51.2802H56.5199C57.2239 51.2802 57.7999 50.7042 57.7999 50.0002C57.7999 47.037 56.1103 44.4642 53.6399 43.1842ZM44.0272 12.6498C48.2768 11.7666 51.5856 8.44501 52.4624 4.18901C52.5712 3.65781 52.9935 3.28021 53.4927 3.28021H53.6591C54.2095 3.28021 54.536 3.58101 54.6768 3.76021C54.9264 4.06741 55.0223 4.47061 54.9327 4.86741C53.8191 9.99381 49.7936 14.0194 44.6672 15.133C44.2704 15.2226 43.8607 15.1266 43.5535 14.877C43.3743 14.7362 43.08 14.4162 43.08 13.885C43.08 13.2834 43.4768 12.765 44.0272 12.6498ZM42.3439 17.1362C42.9583 17.5202 43.6559 17.725 44.3727 17.725C44.6479 17.725 44.9296 17.6994 45.2112 17.6354C45.3648 17.6034 45.5247 17.5522 45.6783 17.5138L43.9375 25.8082L40.7248 24.829L42.3439 17.1362ZM6.76635 10.9602C5.26235 10.9602 4.03995 9.73781 4.03995 8.23381C4.03995 7.40821 4.41115 6.63381 5.05115 6.11541C5.54395 5.71861 6.14555 5.50741 6.75995 5.50741C6.95195 5.50741 7.14395 5.52661 7.33595 5.57141L18.1712 7.89461C18.8816 8.04181 19.4 8.68181 19.4 9.41141C19.4 10.2626 18.7024 10.9602 17.8512 10.9602H6.76635V10.9602ZM15.592 17.373C14.376 17.2258 13.16 17.245 11.9696 17.4242L10.408 13.5202H14.056L15.592 17.373ZM2.75995 31.0818C2.75995 27.4786 4.41755 24.189 7.31675 22.045C9.28795 20.5858 11.5984 19.8306 13.9664 19.8306C15.0736 19.8306 16.1872 19.997 17.288 20.3362L50.2991 30.429C52.8719 31.2162 54.5999 33.5522 54.5999 36.2402C54.5999 39.5938 51.8735 42.3202 48.52 42.3202H13.9984C7.80315 42.3202 2.75995 37.277 2.75995 31.0818ZM2.91995 48.7202C3.48955 46.5122 5.49915 44.8802 7.87995 44.8802H50.12C52.5008 44.8802 54.5103 46.5122 55.0799 48.7202H2.91995ZM19.272 37.2642L21.1408 38.8258C21.16 38.8386 21.1792 38.8514 21.1984 38.8642C21.224 38.8834 21.256 38.9026 21.288 38.9218C21.3264 38.9474 21.3648 38.9666 21.4032 38.9858C21.4352 39.005 21.4672 39.0178 21.4928 39.0306C21.544 39.0498 21.5888 39.0626 21.64 39.0754C21.6656 39.0818 21.6912 39.0882 21.7232 39.0946C21.8 39.1138 21.8768 39.1202 21.96 39.1202H25.16C25.864 39.1202 26.44 38.5442 26.44 37.8402C26.44 37.1362 25.864 36.5602 25.16 36.5602H22.4208L20.9104 35.2994C21.576 34.1666 21.96 32.8482 21.96 31.4402C21.96 27.2034 18.5168 23.7602 14.28 23.7602C10.0432 23.7602 6.59995 27.2034 6.59995 31.4402C6.59995 35.677 10.0432 39.1202 14.28 39.1202C16.1872 39.1202 17.928 38.4162 19.272 37.2642ZM9.15995 31.4402C9.15995 28.6178 11.4576 26.3202 14.28 26.3202C17.1024 26.3202 19.4 28.6178 19.4 31.4402C19.4 32.221 19.2208 32.9634 18.9008 33.629L15.0992 30.4546C14.5552 30.0066 13.7488 30.077 13.2944 30.621C12.8464 31.165 12.9168 31.9714 13.4608 32.4258L17.2624 35.5938C16.424 36.2018 15.3936 36.5602 14.28 36.5602C11.4576 36.5602 9.15995 34.2626 9.15995 31.4402ZM30.28 37.8402C30.28 37.1362 30.856 36.5602 31.56 36.5602H32.84C33.544 36.5602 34.12 37.1362 34.12 37.8402C34.12 38.5442 33.544 39.1202 32.84 39.1202H31.56C30.856 39.1202 30.28 38.5442 30.28 37.8402ZM37.96 37.8402C37.96 37.1362 38.536 36.5602 39.24 36.5602H40.52C41.224 36.5602 41.8 37.1362 41.8 37.8402C41.8 38.5442 41.224 39.1202 40.52 39.1202H39.24C38.536 39.1202 37.96 38.5442 37.96 37.8402ZM45.64 37.8402C45.64 37.1362 46.216 36.5602 46.92 36.5602H48.2C48.904 36.5602 49.48 37.1362 49.48 37.8402C49.48 38.5442 48.904 39.1202 48.2 39.1202H46.92C46.216 39.1202 45.64 38.5442 45.64 37.8402Z" fill="#F7931E"/>
</svg>
