<svg width="56" height="44" viewBox="0 0 56 44" fill="none" xmlns="http://www.w3.org/2000/svg">
<path d="M1.33327 44H54.6666C55.1333 44 55.5599 43.76 55.7999 43.36C56.0399 42.96 56.0666 42.48 55.8533 42.0667L45.1866 20.7333C44.9599 20.28 44.5066 20 43.9999 20H35.6933C37.6666 15.64 38.6666 12.4933 38.6666 10.6667C38.6666 4.78667 33.8799 0 27.9999 0C22.1199 0 17.3333 4.78667 17.3333 10.6667C17.3333 12.4933 18.3333 15.64 20.3066 20H11.9999C11.4933 20 11.0399 20.28 10.8133 20.7333L0.146608 42.0667C-0.0667257 42.48 -0.0400588 42.9733 0.199941 43.36C0.439941 43.76 0.866608 44 1.33327 44ZM19.9999 10.6667C19.9999 6.25333 23.5866 2.66667 27.9999 2.66667C32.4133 2.66667 35.9999 6.25333 35.9999 10.6667C35.9999 13.72 31.9733 22.08 27.9999 29.28C24.0266 22.08 19.9999 13.72 19.9999 10.6667ZM12.8266 22.6667H21.5599C24.0533 27.8133 26.7333 32.4667 26.8533 32.6667C27.3333 33.4933 28.6933 33.4933 29.1599 32.6667C29.2799 32.4667 31.9599 27.8133 34.4533 22.6667H43.1866L52.5199 41.3333H3.49327L12.8266 22.6667Z" fill="#F7931E"/>
</svg>
