<svg width="23" height="22" viewBox="0 0 23 22" fill="none" xmlns="http://www.w3.org/2000/svg">
<path d="M14.6686 10.9999V10.999C14.6686 10.1507 14.3744 9.32867 13.8363 8.67295C13.2982 8.01723 12.5493 7.56839 11.7173 7.40289C10.8854 7.23739 10.0217 7.36548 9.27361 7.76533C8.52549 8.16517 7.93914 8.81205 7.61448 9.59573C7.28981 10.3794 7.24691 11.2514 7.49309 12.0632C7.73926 12.875 8.25928 13.5763 8.96455 14.0476C9.66981 14.519 10.5167 14.7312 11.3609 14.6482C12.2051 14.5651 12.9944 14.1919 13.5943 13.5922C13.9347 13.2632 14.2052 12.8689 14.3898 12.4329C14.5744 11.997 14.6692 11.5283 14.6686 11.0549L14.6677 10.9971V10.9999H14.6686ZM16.6486 10.9999C16.6442 12.3001 16.1894 13.5587 15.3616 14.5614C14.5337 15.564 13.384 16.2489 12.1081 16.4993C10.8322 16.7497 9.50889 16.5503 8.36346 15.935C7.21803 15.3196 6.32121 14.3264 5.82564 13.1242C5.33006 11.9221 5.26636 10.5854 5.64536 9.34163C6.02436 8.09783 6.82265 7.02379 7.90437 6.3023C8.98609 5.5808 10.2844 5.25643 11.5783 5.38439C12.8723 5.51235 14.0819 6.08474 15.0014 7.00413C15.5235 7.51079 15.9385 8.11723 16.2216 8.78743C16.5048 9.45763 16.6503 10.1779 16.6495 10.9055L16.6486 11.0054V11.0008V10.9999ZM18.195 5.12771V5.12955C18.1951 5.43494 18.0893 5.73092 17.8957 5.96705C17.702 6.20319 17.4325 6.36486 17.1329 6.42453C16.8334 6.4842 16.5225 6.43817 16.2531 6.29429C15.9838 6.15041 15.7726 5.91757 15.6557 5.63546C15.5387 5.35334 15.5232 5.0394 15.6118 4.74713C15.7004 4.45487 15.8875 4.20235 16.1414 4.03262C16.3953 3.86289 16.7002 3.78644 17.0041 3.8163C17.308 3.84616 17.5922 3.98048 17.8082 4.19638C18.0429 4.42646 18.1886 4.7473 18.1886 5.10205V5.12863V5.12771H18.195ZM11.0084 1.97438L9.91296 1.96705C9.24929 1.96216 8.74543 1.96216 8.40137 1.96705C8.05732 1.97194 7.59654 1.9863 7.01904 2.01013C6.48279 2.02846 5.97404 2.08163 5.47629 2.16596L5.54321 2.1568C5.15362 2.22096 4.80804 2.31263 4.47712 2.43455L4.51654 2.42171C4.04905 2.60964 3.62392 2.88928 3.26622 3.24414C2.90853 3.599 2.62552 4.02189 2.43387 4.48788L2.42471 4.51263C2.30705 4.83467 2.21989 5.16704 2.16437 5.50538L2.15979 5.5393C2.07826 6.02096 2.02956 6.50761 2.01404 6.99588L2.01312 7.01513C1.98929 7.59324 1.97493 8.05402 1.97004 8.39746C1.96515 8.74091 1.96515 9.24477 1.97004 9.90905C1.97493 10.5733 1.97737 10.9385 1.97737 11.0045C1.97737 11.0705 1.97493 11.4356 1.97004 12.0999C1.96515 12.7642 1.96515 13.268 1.97004 13.6115C1.97493 13.9549 1.98929 14.4157 2.01312 14.9938C2.03146 15.53 2.08462 16.0388 2.16896 16.5365L2.15979 16.4696C2.22396 16.8592 2.31562 17.2048 2.43754 17.5357L2.42471 17.4963C2.61264 17.9638 2.89228 18.3889 3.24714 18.7466C3.602 19.1043 4.02489 19.3873 4.49087 19.579L4.51562 19.5881C4.80712 19.6972 5.15271 19.7889 5.50837 19.8485L5.54229 19.853C5.97221 19.9282 6.48096 19.9814 6.99796 19.9988L7.01721 19.9997C7.59532 20.0235 8.0561 20.0379 8.39954 20.0428C8.74298 20.0477 9.24685 20.0477 9.91112 20.0428L11.0001 20.0208L12.0955 20.0281C12.7592 20.033 13.2631 20.033 13.6071 20.0281C13.9512 20.0232 14.412 20.0089 14.9895 19.985C15.5257 19.9667 16.0345 19.9135 16.5322 19.8292L16.4653 19.8384C16.8549 19.7742 17.2005 19.6825 17.5314 19.5606L17.492 19.5735C17.9595 19.3855 18.3846 19.1059 18.7423 18.751C19.1 18.3962 19.383 17.9733 19.5746 17.5073L19.5838 17.4825C19.6929 17.191 19.7845 16.8455 19.8441 16.4898L19.8487 16.4559C19.9239 16.026 19.977 15.5172 19.9945 15.0002L19.9954 14.981C20.0192 14.4029 20.0336 13.9421 20.0385 13.5986C20.0433 13.2552 20.0433 12.7513 20.0385 12.087C20.0336 11.4228 20.0311 11.0576 20.0311 10.9916C20.0311 10.9256 20.0336 10.5605 20.0385 9.89621C20.0433 9.23193 20.0433 8.72807 20.0385 8.38463C20.0336 8.04119 20.0192 7.58041 19.9954 7.0023C19.977 6.46605 19.9239 5.9573 19.8395 5.45955L19.8487 5.52646C19.7906 5.16301 19.6975 4.806 19.571 4.46038L19.5838 4.4998C19.3959 4.0323 19.1162 3.60717 18.7614 3.24948C18.4065 2.89179 17.9836 2.60877 17.5176 2.41713L17.4929 2.40796C17.1708 2.2903 16.8385 2.20314 16.5001 2.14763L16.4662 2.14305C15.9848 2.06156 15.4985 2.01286 15.0105 1.9973L14.9913 1.99638C14.4132 1.97255 13.9524 1.95819 13.609 1.9533C13.2655 1.94841 12.7617 1.94841 12.0974 1.9533L11.0084 1.97438ZM22.002 10.9999C22.002 13.1864 21.9775 14.6999 21.9286 15.5401C21.972 16.3917 21.8359 17.2429 21.5292 18.0385C21.2226 18.8341 20.7522 19.5564 20.1485 20.1586C19.5448 20.7608 18.8214 21.2294 18.025 21.5341C17.2287 21.8389 16.3772 21.9729 15.5257 21.9275L15.5404 21.9284C14.7001 21.9773 13.1867 22.0017 11.0001 22.0017C8.81357 22.0017 7.30015 21.9773 6.45987 21.9284C5.60831 21.9717 4.75714 21.8356 3.96152 21.529C3.16591 21.2223 2.4436 20.7519 1.84141 20.1483C1.23922 19.5446 0.770575 18.8211 0.465856 18.0248C0.161136 17.2284 0.0271366 16.3769 0.072541 15.5255L0.0716243 15.5401C0.0227355 14.6999 -0.00170898 13.1864 -0.00170898 10.9999C-0.00170898 8.81332 0.0227355 7.29991 0.0716243 6.45963C0.0282948 5.60806 0.164369 4.75689 0.471028 3.96128C0.777687 3.16566 1.24809 2.44336 1.85175 1.84116C2.45541 1.23897 3.17886 0.770331 3.97522 0.465611C4.77158 0.160892 5.62308 0.0268924 6.47454 0.0722969L6.45987 0.0713802C7.30015 0.0224913 8.81357 -0.00195312 11.0001 -0.00195312C13.1867 -0.00195312 14.7001 0.0224913 15.5404 0.0713802C16.3919 0.0280507 17.2431 0.164125 18.0387 0.470784C18.8343 0.777443 19.5566 1.24784 20.1588 1.85151C20.761 2.45517 21.2297 3.17862 21.5344 3.97498C21.8391 4.77134 21.9731 5.62284 21.9277 6.4743L21.9286 6.45963C21.9775 7.2993 22.002 8.81271 22.002 10.9999Z" fill="white"/>
</svg>
