<svg width="31" height="18" viewBox="0 0 31 18" fill="none" xmlns="http://www.w3.org/2000/svg">
<path d="M29.3219 1.22988C29.0081 2.23263 28.549 3.18398 27.9594 4.05363L27.9831 4.01613C27.4231 4.94946 26.7544 6.0278 25.9769 7.25113C25.3102 8.21696 24.9573 8.71696 24.9181 8.75113C24.7399 8.97424 24.6247 9.24096 24.5844 9.52363L24.5831 9.53238C24.6149 9.78707 24.7332 10.0231 24.9181 10.2011L25.4181 10.7586C28.0931 13.5078 29.5977 15.4028 29.9319 16.4436C29.9952 16.6146 30.0156 16.7985 29.9912 16.9792C29.9668 17.1599 29.8983 17.3319 29.7919 17.4799L29.7944 17.4761C29.6685 17.6059 29.5151 17.7058 29.3455 17.7683C29.1759 17.8309 28.9943 17.8545 28.8144 17.8374H28.8194H25.5244C25.1031 17.8374 24.7156 17.6899 24.4119 17.4449L24.4156 17.4474C23.9819 17.0918 23.5838 16.6949 23.2269 16.2624L23.2156 16.2474C22.6398 15.5965 22.1289 15.0486 21.6831 14.6036C20.1981 13.192 19.1023 12.4861 18.3956 12.4861C18.1675 12.4657 17.9395 12.5254 17.7506 12.6549L17.7544 12.6524C17.6732 12.7541 17.6137 12.8713 17.5793 12.9968C17.5449 13.1223 17.5364 13.2535 17.5544 13.3824V13.3774C17.5058 13.9606 17.4899 14.5461 17.5069 15.1311V15.1099V16.5586C17.5424 16.7317 17.5302 16.9111 17.4716 17.0778C17.4131 17.2444 17.3103 17.3921 17.1744 17.5049L17.1731 17.5061C16.5401 17.7921 15.8432 17.9072 15.1519 17.8399L15.1681 17.8411C13.2759 17.8087 11.4283 17.2607 9.82437 16.2561L9.86812 16.2811C8.0186 15.1661 6.43332 13.6627 5.22187 11.8749L5.18812 11.8224C4.01216 10.2542 2.97848 8.58427 2.09937 6.83238L2.01187 6.63988C1.42607 5.50543 0.911324 4.33568 0.470615 3.13738L0.395615 2.90613C0.191284 2.28405 0.0612151 1.64 0.00811523 0.987383L0.00561523 0.956133C0.00561523 0.324466 0.377282 0.00863307 1.12062 0.00863307H4.40812C4.74047 -0.0173979 5.0704 0.083054 5.33187 0.289883L5.32937 0.287383C5.57937 0.561133 5.76437 0.897382 5.85562 1.27238L5.85937 1.28738C6.40248 2.84278 7.06573 4.35358 7.84312 5.80613L7.75937 5.63488C8.32123 6.77616 9.00119 7.8554 9.78812 8.85488L9.75937 8.81613C10.426 9.63446 10.946 10.0436 11.3194 10.0436L11.3594 10.0449C11.4473 10.045 11.5336 10.022 11.6098 9.97808C11.6859 9.93419 11.7492 9.871 11.7931 9.79488L11.7944 9.79238C11.914 9.47908 11.9615 9.14281 11.9331 8.80863V8.81613V3.96738C11.9097 3.41763 11.7736 2.87855 11.5331 2.38363L11.5431 2.40738C11.3973 2.09284 11.2079 1.80039 10.9806 1.53863L10.9844 1.54363C10.7748 1.33437 10.6384 1.06296 10.5956 0.769883L10.5944 0.762383C10.5944 0.549883 10.6919 0.358633 10.8444 0.233633L10.8456 0.232383C11.0026 0.0886562 11.2078 0.00922891 11.4206 0.00988297H16.6131C16.7435 -0.00532883 16.8755 0.0120629 16.9975 0.0604974C17.1195 0.108932 17.2275 0.186894 17.3119 0.287383L17.3131 0.288633C17.471 0.580352 17.5401 0.911884 17.5119 1.24238V1.23613V7.70238C17.492 7.95742 17.5513 8.21238 17.6819 8.43238L17.6794 8.42738C17.7251 8.4958 17.7871 8.55188 17.8597 8.59069C17.9323 8.6295 18.0133 8.64982 18.0956 8.64988H18.0969C18.3077 8.63618 18.511 8.56626 18.6856 8.44738L18.6819 8.44988C19.0219 8.21613 19.3144 7.94988 19.5681 7.64863L19.5731 7.64238C20.3454 6.7686 21.0377 5.82733 21.6419 4.82988L21.6906 4.74238C22.1206 4.02988 22.5856 3.15238 23.0069 2.25113L23.0844 2.06738L23.6419 0.952382C23.74 0.664089 23.9294 0.415583 24.1813 0.244419C24.4332 0.0732548 24.7339 -0.0112648 25.0381 0.00363283H25.0344H28.3231C29.2114 0.00363283 29.5448 0.412383 29.3231 1.22988H29.3219Z" fill="white"/>
</svg>
